<svg width="1832" height="1670" viewBox="0 0 1832 1670" fill="none" xmlns="http://www.w3.org/2000/svg">
<rect width="76.6696" height="857" fill="url(#paint0_linear_192_2)"/>
<rect width="76.6696" height="857" fill="url(#paint1_linear_192_2)"/>
<rect x="458" width="76.6696" height="857" fill="url(#paint2_linear_192_2)"/>
<rect x="458" width="76.6696" height="857" fill="url(#paint3_linear_192_2)"/>
<rect x="152.666" width="76.6696" height="857" fill="url(#paint4_linear_192_2)"/>
<rect x="152.666" width="76.6696" height="857" fill="url(#paint5_linear_192_2)"/>
<rect x="610.668" width="76.6696" height="857" fill="url(#paint6_linear_192_2)"/>
<rect x="610.668" width="76.6696" height="857" fill="url(#paint7_linear_192_2)"/>
<rect x="305.334" width="76.6696" height="857" fill="url(#paint8_linear_192_2)"/>
<rect x="305.334" width="76.6696" height="857" fill="url(#paint9_linear_192_2)"/>
<rect x="763.332" width="76.6696" height="857" fill="url(#paint10_linear_192_2)"/>
<rect x="763.332" width="76.6696" height="857" fill="url(#paint11_linear_192_2)"/>
<rect x="76.6699" width="75.9971" height="857" fill="url(#paint12_linear_192_2)"/>
<rect x="76.6699" width="75.9971" height="857" fill="url(#paint13_linear_192_2)"/>
<rect x="534.668" width="75.9971" height="857" fill="url(#paint14_linear_192_2)"/>
<rect x="534.668" width="75.9971" height="857" fill="url(#paint15_linear_192_2)"/>
<rect x="229.336" width="75.9971" height="857" fill="url(#paint16_linear_192_2)"/>
<rect x="229.336" width="75.9971" height="857" fill="url(#paint17_linear_192_2)"/>
<rect x="687.336" width="75.9971" height="857" fill="url(#paint18_linear_192_2)"/>
<rect x="687.336" width="75.9971" height="857" fill="url(#paint19_linear_192_2)"/>
<rect x="382.004" width="75.9971" height="857" fill="url(#paint20_linear_192_2)"/>
<rect x="382.004" width="75.9971" height="857" fill="url(#paint21_linear_192_2)"/>
<rect x="840.004" width="75.9971" height="857" fill="url(#paint22_linear_192_2)"/>
<rect x="840.004" width="75.9971" height="857" fill="url(#paint23_linear_192_2)"/>
<rect width="76.6696" height="813" transform="matrix(1 0 0 -1 0 1670)" fill="url(#paint24_linear_192_2)"/>
<rect width="76.6696" height="813" transform="matrix(1 0 0 -1 0 1670)" fill="url(#paint25_linear_192_2)"/>
<rect width="76.6696" height="813" transform="matrix(1 0 0 -1 458 1670)" fill="url(#paint26_linear_192_2)"/>
<rect width="76.6696" height="813" transform="matrix(1 0 0 -1 458 1670)" fill="url(#paint27_linear_192_2)"/>
<rect width="76.6696" height="813" transform="matrix(1 0 0 -1 152.668 1670)" fill="url(#paint28_linear_192_2)"/>
<rect width="76.6696" height="813" transform="matrix(1 0 0 -1 152.668 1670)" fill="url(#paint29_linear_192_2)"/>
<rect width="76.6696" height="813" transform="matrix(1 0 0 -1 610.668 1670)" fill="url(#paint30_linear_192_2)"/>
<rect width="76.6696" height="813" transform="matrix(1 0 0 -1 610.668 1670)" fill="url(#paint31_linear_192_2)"/>
<rect width="76.6696" height="813" transform="matrix(1 0 0 -1 305.332 1670)" fill="url(#paint32_linear_192_2)"/>
<rect width="76.6696" height="813" transform="matrix(1 0 0 -1 305.332 1670)" fill="url(#paint33_linear_192_2)"/>
<rect width="76.6696" height="813" transform="matrix(1 0 0 -1 763.332 1670)" fill="url(#paint34_linear_192_2)"/>
<rect width="76.6696" height="813" transform="matrix(1 0 0 -1 763.332 1670)" fill="url(#paint35_linear_192_2)"/>
<rect width="75.9971" height="813" transform="matrix(1 0 0 -1 76.6699 1670)" fill="url(#paint36_linear_192_2)"/>
<rect width="75.9971" height="813" transform="matrix(1 0 0 -1 76.6699 1670)" fill="url(#paint37_linear_192_2)"/>
<rect width="75.9971" height="813" transform="matrix(1 0 0 -1 534.672 1670)" fill="url(#paint38_linear_192_2)"/>
<rect width="75.9971" height="813" transform="matrix(1 0 0 -1 534.672 1670)" fill="url(#paint39_linear_192_2)"/>
<rect width="75.9971" height="813" transform="matrix(1 0 0 -1 229.336 1670)" fill="url(#paint40_linear_192_2)"/>
<rect width="75.9971" height="813" transform="matrix(1 0 0 -1 229.336 1670)" fill="url(#paint41_linear_192_2)"/>
<rect width="75.9971" height="813" transform="matrix(1 0 0 -1 687.336 1670)" fill="url(#paint42_linear_192_2)"/>
<rect width="75.9971" height="813" transform="matrix(1 0 0 -1 687.336 1670)" fill="url(#paint43_linear_192_2)"/>
<rect width="75.9971" height="813" transform="matrix(1 0 0 -1 382.004 1670)" fill="url(#paint44_linear_192_2)"/>
<rect width="75.9971" height="813" transform="matrix(1 0 0 -1 382.004 1670)" fill="url(#paint45_linear_192_2)"/>
<rect width="75.9971" height="813" transform="matrix(1 0 0 -1 840.004 1670)" fill="url(#paint46_linear_192_2)"/>
<rect width="75.9971" height="813" transform="matrix(1 0 0 -1 840.004 1670)" fill="url(#paint47_linear_192_2)"/>
<rect x="916" width="76.6696" height="857" fill="url(#paint48_linear_192_2)"/>
<rect x="916" width="76.6696" height="857" fill="url(#paint49_linear_192_2)"/>
<rect x="1374" width="76.6696" height="857" fill="url(#paint50_linear_192_2)"/>
<rect x="1374" width="76.6696" height="857" fill="url(#paint51_linear_192_2)"/>
<rect x="1068.67" width="76.6696" height="857" fill="url(#paint52_linear_192_2)"/>
<rect x="1068.67" width="76.6696" height="857" fill="url(#paint53_linear_192_2)"/>
<rect x="1526.67" width="76.6696" height="857" fill="url(#paint54_linear_192_2)"/>
<rect x="1526.67" width="76.6696" height="857" fill="url(#paint55_linear_192_2)"/>
<rect x="1221.33" width="76.6696" height="857" fill="url(#paint56_linear_192_2)"/>
<rect x="1221.33" width="76.6696" height="857" fill="url(#paint57_linear_192_2)"/>
<rect x="1679.33" width="76.6696" height="857" fill="url(#paint58_linear_192_2)"/>
<rect x="1679.33" width="76.6696" height="857" fill="url(#paint59_linear_192_2)"/>
<rect x="992.668" width="75.9971" height="857" fill="url(#paint60_linear_192_2)"/>
<rect x="992.668" width="75.9971" height="857" fill="url(#paint61_linear_192_2)"/>
<rect x="1450.67" width="75.9971" height="857" fill="url(#paint62_linear_192_2)"/>
<rect x="1450.67" width="75.9971" height="857" fill="url(#paint63_linear_192_2)"/>
<rect x="1145.34" width="75.9971" height="857" fill="url(#paint64_linear_192_2)"/>
<rect x="1145.34" width="75.9971" height="857" fill="url(#paint65_linear_192_2)"/>
<rect x="1603.34" width="75.9971" height="857" fill="url(#paint66_linear_192_2)"/>
<rect x="1603.34" width="75.9971" height="857" fill="url(#paint67_linear_192_2)"/>
<rect x="1298" width="75.9971" height="857" fill="url(#paint68_linear_192_2)"/>
<rect x="1298" width="75.9971" height="857" fill="url(#paint69_linear_192_2)"/>
<rect x="1756" width="75.9971" height="857" fill="url(#paint70_linear_192_2)"/>
<rect x="1756" width="75.9971" height="857" fill="url(#paint71_linear_192_2)"/>
<rect width="76.6696" height="813" transform="matrix(1 0 0 -1 916 1670)" fill="url(#paint72_linear_192_2)"/>
<rect width="76.6696" height="813" transform="matrix(1 0 0 -1 916 1670)" fill="url(#paint73_linear_192_2)"/>
<rect width="76.6696" height="813" transform="matrix(1 0 0 -1 1374 1670)" fill="url(#paint74_linear_192_2)"/>
<rect width="76.6696" height="813" transform="matrix(1 0 0 -1 1374 1670)" fill="url(#paint75_linear_192_2)"/>
<rect width="76.6696" height="813" transform="matrix(1 0 0 -1 1068.67 1670)" fill="url(#paint76_linear_192_2)"/>
<rect width="76.6696" height="813" transform="matrix(1 0 0 -1 1068.67 1670)" fill="url(#paint77_linear_192_2)"/>
<rect width="76.6696" height="813" transform="matrix(1 0 0 -1 1526.67 1670)" fill="url(#paint78_linear_192_2)"/>
<rect width="76.6696" height="813" transform="matrix(1 0 0 -1 1526.67 1670)" fill="url(#paint79_linear_192_2)"/>
<rect width="76.6696" height="813" transform="matrix(1 0 0 -1 1221.33 1670)" fill="url(#paint80_linear_192_2)"/>
<rect width="76.6696" height="813" transform="matrix(1 0 0 -1 1221.33 1670)" fill="url(#paint81_linear_192_2)"/>
<rect width="76.6696" height="813" transform="matrix(1 0 0 -1 1679.33 1670)" fill="url(#paint82_linear_192_2)"/>
<rect width="76.6696" height="813" transform="matrix(1 0 0 -1 1679.33 1670)" fill="url(#paint83_linear_192_2)"/>
<rect width="75.9971" height="813" transform="matrix(1 0 0 -1 992.672 1670)" fill="url(#paint84_linear_192_2)"/>
<rect width="75.9971" height="813" transform="matrix(1 0 0 -1 992.672 1670)" fill="url(#paint85_linear_192_2)"/>
<rect width="75.9971" height="813" transform="matrix(1 0 0 -1 1450.67 1670)" fill="url(#paint86_linear_192_2)"/>
<rect width="75.9971" height="813" transform="matrix(1 0 0 -1 1450.67 1670)" fill="url(#paint87_linear_192_2)"/>
<rect width="75.9971" height="813" transform="matrix(1 0 0 -1 1145.34 1670)" fill="url(#paint88_linear_192_2)"/>
<rect width="75.9971" height="813" transform="matrix(1 0 0 -1 1145.34 1670)" fill="url(#paint89_linear_192_2)"/>
<rect width="75.9971" height="813" transform="matrix(1 0 0 -1 1603.34 1670)" fill="url(#paint90_linear_192_2)"/>
<rect width="75.9971" height="813" transform="matrix(1 0 0 -1 1603.34 1670)" fill="url(#paint91_linear_192_2)"/>
<rect width="75.9971" height="813" transform="matrix(1 0 0 -1 1298 1670)" fill="url(#paint92_linear_192_2)"/>
<rect width="75.9971" height="813" transform="matrix(1 0 0 -1 1298 1670)" fill="url(#paint93_linear_192_2)"/>
<rect width="75.9971" height="813" transform="matrix(1 0 0 -1 1756 1670)" fill="url(#paint94_linear_192_2)"/>
<rect width="75.9971" height="813" transform="matrix(1 0 0 -1 1756 1670)" fill="url(#paint95_linear_192_2)"/>
<defs>
<linearGradient id="paint0_linear_192_2" x1="-7.20694" y1="568.694" x2="181.216" y2="745.726" gradientUnits="userSpaceOnUse">
<stop stop-opacity="0"/>
<stop offset="1" stop-color="white"/>
</linearGradient>
<linearGradient id="paint1_linear_192_2" x1="-6.86749e-08" y1="83.295" x2="256.814" y2="791.692" gradientUnits="userSpaceOnUse">
<stop stop-opacity="0"/>
<stop offset="1" stop-color="#D6CEFF" stop-opacity="0.19"/>
</linearGradient>
<linearGradient id="paint2_linear_192_2" x1="450.793" y1="568.694" x2="639.216" y2="745.726" gradientUnits="userSpaceOnUse">
<stop stop-opacity="0"/>
<stop offset="1" stop-color="white"/>
</linearGradient>
<linearGradient id="paint3_linear_192_2" x1="458" y1="83.295" x2="714.814" y2="791.692" gradientUnits="userSpaceOnUse">
<stop stop-opacity="0"/>
<stop offset="1" stop-color="#D6CEFF" stop-opacity="0.19"/>
</linearGradient>
<linearGradient id="paint4_linear_192_2" x1="145.459" y1="568.694" x2="333.882" y2="745.726" gradientUnits="userSpaceOnUse">
<stop stop-opacity="0"/>
<stop offset="1" stop-color="white"/>
</linearGradient>
<linearGradient id="paint5_linear_192_2" x1="152.666" y1="83.295" x2="409.48" y2="791.692" gradientUnits="userSpaceOnUse">
<stop stop-opacity="0"/>
<stop offset="1" stop-color="#D6CEFF" stop-opacity="0.19"/>
</linearGradient>
<linearGradient id="paint6_linear_192_2" x1="603.461" y1="568.694" x2="791.884" y2="745.726" gradientUnits="userSpaceOnUse">
<stop stop-opacity="0"/>
<stop offset="1" stop-color="white"/>
</linearGradient>
<linearGradient id="paint7_linear_192_2" x1="610.668" y1="83.295" x2="867.482" y2="791.692" gradientUnits="userSpaceOnUse">
<stop stop-opacity="0"/>
<stop offset="1" stop-color="#D6CEFF" stop-opacity="0.19"/>
</linearGradient>
<linearGradient id="paint8_linear_192_2" x1="298.127" y1="568.694" x2="486.55" y2="745.726" gradientUnits="userSpaceOnUse">
<stop stop-opacity="0"/>
<stop offset="1" stop-color="white"/>
</linearGradient>
<linearGradient id="paint9_linear_192_2" x1="305.334" y1="83.295" x2="562.148" y2="791.692" gradientUnits="userSpaceOnUse">
<stop stop-opacity="0"/>
<stop offset="1" stop-color="#D6CEFF" stop-opacity="0.19"/>
</linearGradient>
<linearGradient id="paint10_linear_192_2" x1="756.125" y1="568.694" x2="944.548" y2="745.726" gradientUnits="userSpaceOnUse">
<stop stop-opacity="0"/>
<stop offset="1" stop-color="white"/>
</linearGradient>
<linearGradient id="paint11_linear_192_2" x1="763.332" y1="83.295" x2="1020.15" y2="791.692" gradientUnits="userSpaceOnUse">
<stop stop-opacity="0"/>
<stop offset="1" stop-color="#D6CEFF" stop-opacity="0.19"/>
</linearGradient>
<linearGradient id="paint12_linear_192_2" x1="69.5262" y1="568.694" x2="257.839" y2="744.07" gradientUnits="userSpaceOnUse">
<stop stop-opacity="0"/>
<stop offset="1" stop-color="white"/>
</linearGradient>
<linearGradient id="paint13_linear_192_2" x1="76.6699" y1="83.295" x2="335.223" y2="790.232" gradientUnits="userSpaceOnUse">
<stop stop-opacity="0"/>
<stop offset="1" stop-color="#D6CEFF" stop-opacity="0.19"/>
</linearGradient>
<linearGradient id="paint14_linear_192_2" x1="527.524" y1="568.694" x2="715.837" y2="744.07" gradientUnits="userSpaceOnUse">
<stop stop-opacity="0"/>
<stop offset="1" stop-color="white"/>
</linearGradient>
<linearGradient id="paint15_linear_192_2" x1="534.668" y1="83.295" x2="793.221" y2="790.232" gradientUnits="userSpaceOnUse">
<stop stop-opacity="0"/>
<stop offset="1" stop-color="#D6CEFF" stop-opacity="0.19"/>
</linearGradient>
<linearGradient id="paint16_linear_192_2" x1="222.192" y1="568.694" x2="410.505" y2="744.07" gradientUnits="userSpaceOnUse">
<stop stop-opacity="0"/>
<stop offset="1" stop-color="white"/>
</linearGradient>
<linearGradient id="paint17_linear_192_2" x1="229.336" y1="83.295" x2="487.889" y2="790.232" gradientUnits="userSpaceOnUse">
<stop stop-opacity="0"/>
<stop offset="1" stop-color="#D6CEFF" stop-opacity="0.19"/>
</linearGradient>
<linearGradient id="paint18_linear_192_2" x1="680.192" y1="568.694" x2="868.505" y2="744.07" gradientUnits="userSpaceOnUse">
<stop stop-opacity="0"/>
<stop offset="1" stop-color="white"/>
</linearGradient>
<linearGradient id="paint19_linear_192_2" x1="687.336" y1="83.295" x2="945.889" y2="790.232" gradientUnits="userSpaceOnUse">
<stop stop-opacity="0"/>
<stop offset="1" stop-color="#D6CEFF" stop-opacity="0.19"/>
</linearGradient>
<linearGradient id="paint20_linear_192_2" x1="374.86" y1="568.694" x2="563.173" y2="744.07" gradientUnits="userSpaceOnUse">
<stop stop-opacity="0"/>
<stop offset="1" stop-color="white"/>
</linearGradient>
<linearGradient id="paint21_linear_192_2" x1="382.004" y1="83.295" x2="640.557" y2="790.232" gradientUnits="userSpaceOnUse">
<stop stop-opacity="0"/>
<stop offset="1" stop-color="#D6CEFF" stop-opacity="0.19"/>
</linearGradient>
<linearGradient id="paint22_linear_192_2" x1="832.86" y1="568.694" x2="1021.17" y2="744.07" gradientUnits="userSpaceOnUse">
<stop stop-opacity="0"/>
<stop offset="1" stop-color="white"/>
</linearGradient>
<linearGradient id="paint23_linear_192_2" x1="840.004" y1="83.295" x2="1098.56" y2="790.232" gradientUnits="userSpaceOnUse">
<stop stop-opacity="0"/>
<stop offset="1" stop-color="#D6CEFF" stop-opacity="0.19"/>
</linearGradient>
<linearGradient id="paint24_linear_192_2" x1="-7.20694" y1="539.496" x2="171.882" y2="716.865" gradientUnits="userSpaceOnUse">
<stop stop-opacity="0"/>
<stop offset="1" stop-color="white"/>
</linearGradient>
<linearGradient id="paint25_linear_192_2" x1="-6.86749e-08" y1="79.0185" x2="233.838" y2="758.947" gradientUnits="userSpaceOnUse">
<stop stop-opacity="0"/>
<stop offset="1" stop-color="#D6CEFF" stop-opacity="0.19"/>
</linearGradient>
<linearGradient id="paint26_linear_192_2" x1="-7.20694" y1="539.496" x2="171.882" y2="716.865" gradientUnits="userSpaceOnUse">
<stop stop-opacity="0"/>
<stop offset="1" stop-color="white"/>
</linearGradient>
<linearGradient id="paint27_linear_192_2" x1="-6.86749e-08" y1="79.0185" x2="233.838" y2="758.947" gradientUnits="userSpaceOnUse">
<stop stop-opacity="0"/>
<stop offset="1" stop-color="#D6CEFF" stop-opacity="0.19"/>
</linearGradient>
<linearGradient id="paint28_linear_192_2" x1="-7.20694" y1="539.496" x2="171.882" y2="716.865" gradientUnits="userSpaceOnUse">
<stop stop-opacity="0"/>
<stop offset="1" stop-color="white"/>
</linearGradient>
<linearGradient id="paint29_linear_192_2" x1="-6.86749e-08" y1="79.0185" x2="233.838" y2="758.947" gradientUnits="userSpaceOnUse">
<stop stop-opacity="0"/>
<stop offset="1" stop-color="#D6CEFF" stop-opacity="0.19"/>
</linearGradient>
<linearGradient id="paint30_linear_192_2" x1="-7.20694" y1="539.496" x2="171.882" y2="716.865" gradientUnits="userSpaceOnUse">
<stop stop-opacity="0"/>
<stop offset="1" stop-color="white"/>
</linearGradient>
<linearGradient id="paint31_linear_192_2" x1="-6.86749e-08" y1="79.0185" x2="233.838" y2="758.947" gradientUnits="userSpaceOnUse">
<stop stop-opacity="0"/>
<stop offset="1" stop-color="#D6CEFF" stop-opacity="0.19"/>
</linearGradient>
<linearGradient id="paint32_linear_192_2" x1="-7.20694" y1="539.496" x2="171.882" y2="716.865" gradientUnits="userSpaceOnUse">
<stop stop-opacity="0"/>
<stop offset="1" stop-color="white"/>
</linearGradient>
<linearGradient id="paint33_linear_192_2" x1="-6.86749e-08" y1="79.0185" x2="233.838" y2="758.947" gradientUnits="userSpaceOnUse">
<stop stop-opacity="0"/>
<stop offset="1" stop-color="#D6CEFF" stop-opacity="0.19"/>
</linearGradient>
<linearGradient id="paint34_linear_192_2" x1="-7.20694" y1="539.496" x2="171.882" y2="716.865" gradientUnits="userSpaceOnUse">
<stop stop-opacity="0"/>
<stop offset="1" stop-color="white"/>
</linearGradient>
<linearGradient id="paint35_linear_192_2" x1="-6.86749e-08" y1="79.0185" x2="233.838" y2="758.947" gradientUnits="userSpaceOnUse">
<stop stop-opacity="0"/>
<stop offset="1" stop-color="#D6CEFF" stop-opacity="0.19"/>
</linearGradient>
<linearGradient id="paint36_linear_192_2" x1="-7.14372" y1="539.496" x2="171.923" y2="715.287" gradientUnits="userSpaceOnUse">
<stop stop-opacity="0"/>
<stop offset="1" stop-color="white"/>
</linearGradient>
<linearGradient id="paint37_linear_192_2" x1="-6.80725e-08" y1="79.0185" x2="235.465" y2="757.671" gradientUnits="userSpaceOnUse">
<stop stop-opacity="0"/>
<stop offset="1" stop-color="#D6CEFF" stop-opacity="0.19"/>
</linearGradient>
<linearGradient id="paint38_linear_192_2" x1="-7.14372" y1="539.496" x2="171.923" y2="715.287" gradientUnits="userSpaceOnUse">
<stop stop-opacity="0"/>
<stop offset="1" stop-color="white"/>
</linearGradient>
<linearGradient id="paint39_linear_192_2" x1="-6.80725e-08" y1="79.0185" x2="235.465" y2="757.671" gradientUnits="userSpaceOnUse">
<stop stop-opacity="0"/>
<stop offset="1" stop-color="#D6CEFF" stop-opacity="0.19"/>
</linearGradient>
<linearGradient id="paint40_linear_192_2" x1="-7.14372" y1="539.496" x2="171.923" y2="715.287" gradientUnits="userSpaceOnUse">
<stop stop-opacity="0"/>
<stop offset="1" stop-color="white"/>
</linearGradient>
<linearGradient id="paint41_linear_192_2" x1="-6.80725e-08" y1="79.0185" x2="235.465" y2="757.671" gradientUnits="userSpaceOnUse">
<stop stop-opacity="0"/>
<stop offset="1" stop-color="#D6CEFF" stop-opacity="0.19"/>
</linearGradient>
<linearGradient id="paint42_linear_192_2" x1="-7.14372" y1="539.496" x2="171.923" y2="715.287" gradientUnits="userSpaceOnUse">
<stop stop-opacity="0"/>
<stop offset="1" stop-color="white"/>
</linearGradient>
<linearGradient id="paint43_linear_192_2" x1="-6.80725e-08" y1="79.0185" x2="235.465" y2="757.671" gradientUnits="userSpaceOnUse">
<stop stop-opacity="0"/>
<stop offset="1" stop-color="#D6CEFF" stop-opacity="0.19"/>
</linearGradient>
<linearGradient id="paint44_linear_192_2" x1="-7.14372" y1="539.496" x2="171.923" y2="715.287" gradientUnits="userSpaceOnUse">
<stop stop-opacity="0"/>
<stop offset="1" stop-color="white"/>
</linearGradient>
<linearGradient id="paint45_linear_192_2" x1="-6.80725e-08" y1="79.0185" x2="235.465" y2="757.671" gradientUnits="userSpaceOnUse">
<stop stop-opacity="0"/>
<stop offset="1" stop-color="#D6CEFF" stop-opacity="0.19"/>
</linearGradient>
<linearGradient id="paint46_linear_192_2" x1="-7.14372" y1="539.496" x2="171.923" y2="715.287" gradientUnits="userSpaceOnUse">
<stop stop-opacity="0"/>
<stop offset="1" stop-color="white"/>
</linearGradient>
<linearGradient id="paint47_linear_192_2" x1="-6.80725e-08" y1="79.0185" x2="235.465" y2="757.671" gradientUnits="userSpaceOnUse">
<stop stop-opacity="0"/>
<stop offset="1" stop-color="#D6CEFF" stop-opacity="0.19"/>
</linearGradient>
<linearGradient id="paint48_linear_192_2" x1="908.793" y1="568.694" x2="1097.22" y2="745.726" gradientUnits="userSpaceOnUse">
<stop stop-opacity="0"/>
<stop offset="1" stop-color="white"/>
</linearGradient>
<linearGradient id="paint49_linear_192_2" x1="916" y1="83.295" x2="1172.81" y2="791.692" gradientUnits="userSpaceOnUse">
<stop stop-opacity="0"/>
<stop offset="1" stop-color="#D6CEFF" stop-opacity="0.19"/>
</linearGradient>
<linearGradient id="paint50_linear_192_2" x1="1366.79" y1="568.694" x2="1555.22" y2="745.726" gradientUnits="userSpaceOnUse">
<stop stop-opacity="0"/>
<stop offset="1" stop-color="white"/>
</linearGradient>
<linearGradient id="paint51_linear_192_2" x1="1374" y1="83.295" x2="1630.81" y2="791.692" gradientUnits="userSpaceOnUse">
<stop stop-opacity="0"/>
<stop offset="1" stop-color="#D6CEFF" stop-opacity="0.19"/>
</linearGradient>
<linearGradient id="paint52_linear_192_2" x1="1061.46" y1="568.694" x2="1249.88" y2="745.726" gradientUnits="userSpaceOnUse">
<stop stop-opacity="0"/>
<stop offset="1" stop-color="white"/>
</linearGradient>
<linearGradient id="paint53_linear_192_2" x1="1068.67" y1="83.295" x2="1325.48" y2="791.692" gradientUnits="userSpaceOnUse">
<stop stop-opacity="0"/>
<stop offset="1" stop-color="#D6CEFF" stop-opacity="0.19"/>
</linearGradient>
<linearGradient id="paint54_linear_192_2" x1="1519.46" y1="568.694" x2="1707.88" y2="745.726" gradientUnits="userSpaceOnUse">
<stop stop-opacity="0"/>
<stop offset="1" stop-color="white"/>
</linearGradient>
<linearGradient id="paint55_linear_192_2" x1="1526.67" y1="83.295" x2="1783.48" y2="791.692" gradientUnits="userSpaceOnUse">
<stop stop-opacity="0"/>
<stop offset="1" stop-color="#D6CEFF" stop-opacity="0.19"/>
</linearGradient>
<linearGradient id="paint56_linear_192_2" x1="1214.13" y1="568.694" x2="1402.55" y2="745.726" gradientUnits="userSpaceOnUse">
<stop stop-opacity="0"/>
<stop offset="1" stop-color="white"/>
</linearGradient>
<linearGradient id="paint57_linear_192_2" x1="1221.33" y1="83.295" x2="1478.15" y2="791.692" gradientUnits="userSpaceOnUse">
<stop stop-opacity="0"/>
<stop offset="1" stop-color="#D6CEFF" stop-opacity="0.19"/>
</linearGradient>
<linearGradient id="paint58_linear_192_2" x1="1672.13" y1="568.694" x2="1860.55" y2="745.726" gradientUnits="userSpaceOnUse">
<stop stop-opacity="0"/>
<stop offset="1" stop-color="white"/>
</linearGradient>
<linearGradient id="paint59_linear_192_2" x1="1679.33" y1="83.295" x2="1936.15" y2="791.692" gradientUnits="userSpaceOnUse">
<stop stop-opacity="0"/>
<stop offset="1" stop-color="#D6CEFF" stop-opacity="0.19"/>
</linearGradient>
<linearGradient id="paint60_linear_192_2" x1="985.524" y1="568.694" x2="1173.84" y2="744.07" gradientUnits="userSpaceOnUse">
<stop stop-opacity="0"/>
<stop offset="1" stop-color="white"/>
</linearGradient>
<linearGradient id="paint61_linear_192_2" x1="992.668" y1="83.295" x2="1251.22" y2="790.232" gradientUnits="userSpaceOnUse">
<stop stop-opacity="0"/>
<stop offset="1" stop-color="#D6CEFF" stop-opacity="0.19"/>
</linearGradient>
<linearGradient id="paint62_linear_192_2" x1="1443.52" y1="568.694" x2="1631.84" y2="744.07" gradientUnits="userSpaceOnUse">
<stop stop-opacity="0"/>
<stop offset="1" stop-color="white"/>
</linearGradient>
<linearGradient id="paint63_linear_192_2" x1="1450.67" y1="83.295" x2="1709.22" y2="790.232" gradientUnits="userSpaceOnUse">
<stop stop-opacity="0"/>
<stop offset="1" stop-color="#D6CEFF" stop-opacity="0.19"/>
</linearGradient>
<linearGradient id="paint64_linear_192_2" x1="1138.19" y1="568.694" x2="1326.5" y2="744.07" gradientUnits="userSpaceOnUse">
<stop stop-opacity="0"/>
<stop offset="1" stop-color="white"/>
</linearGradient>
<linearGradient id="paint65_linear_192_2" x1="1145.34" y1="83.295" x2="1403.89" y2="790.232" gradientUnits="userSpaceOnUse">
<stop stop-opacity="0"/>
<stop offset="1" stop-color="#D6CEFF" stop-opacity="0.19"/>
</linearGradient>
<linearGradient id="paint66_linear_192_2" x1="1596.19" y1="568.694" x2="1784.5" y2="744.07" gradientUnits="userSpaceOnUse">
<stop stop-opacity="0"/>
<stop offset="1" stop-color="white"/>
</linearGradient>
<linearGradient id="paint67_linear_192_2" x1="1603.34" y1="83.295" x2="1861.89" y2="790.232" gradientUnits="userSpaceOnUse">
<stop stop-opacity="0"/>
<stop offset="1" stop-color="#D6CEFF" stop-opacity="0.19"/>
</linearGradient>
<linearGradient id="paint68_linear_192_2" x1="1290.86" y1="568.694" x2="1479.17" y2="744.07" gradientUnits="userSpaceOnUse">
<stop stop-opacity="0"/>
<stop offset="1" stop-color="white"/>
</linearGradient>
<linearGradient id="paint69_linear_192_2" x1="1298" y1="83.295" x2="1556.56" y2="790.232" gradientUnits="userSpaceOnUse">
<stop stop-opacity="0"/>
<stop offset="1" stop-color="#D6CEFF" stop-opacity="0.19"/>
</linearGradient>
<linearGradient id="paint70_linear_192_2" x1="1748.86" y1="568.694" x2="1937.17" y2="744.07" gradientUnits="userSpaceOnUse">
<stop stop-opacity="0"/>
<stop offset="1" stop-color="white"/>
</linearGradient>
<linearGradient id="paint71_linear_192_2" x1="1756" y1="83.295" x2="2014.56" y2="790.232" gradientUnits="userSpaceOnUse">
<stop stop-opacity="0"/>
<stop offset="1" stop-color="#D6CEFF" stop-opacity="0.19"/>
</linearGradient>
<linearGradient id="paint72_linear_192_2" x1="-7.20694" y1="539.496" x2="171.882" y2="716.865" gradientUnits="userSpaceOnUse">
<stop stop-opacity="0"/>
<stop offset="1" stop-color="white"/>
</linearGradient>
<linearGradient id="paint73_linear_192_2" x1="-6.86749e-08" y1="79.0185" x2="233.838" y2="758.947" gradientUnits="userSpaceOnUse">
<stop stop-opacity="0"/>
<stop offset="1" stop-color="#D6CEFF" stop-opacity="0.19"/>
</linearGradient>
<linearGradient id="paint74_linear_192_2" x1="-7.20694" y1="539.496" x2="171.882" y2="716.865" gradientUnits="userSpaceOnUse">
<stop stop-opacity="0"/>
<stop offset="1" stop-color="white"/>
</linearGradient>
<linearGradient id="paint75_linear_192_2" x1="-6.86749e-08" y1="79.0185" x2="233.838" y2="758.947" gradientUnits="userSpaceOnUse">
<stop stop-opacity="0"/>
<stop offset="1" stop-color="#D6CEFF" stop-opacity="0.19"/>
</linearGradient>
<linearGradient id="paint76_linear_192_2" x1="-7.20694" y1="539.496" x2="171.882" y2="716.865" gradientUnits="userSpaceOnUse">
<stop stop-opacity="0"/>
<stop offset="1" stop-color="white"/>
</linearGradient>
<linearGradient id="paint77_linear_192_2" x1="-6.86749e-08" y1="79.0185" x2="233.838" y2="758.947" gradientUnits="userSpaceOnUse">
<stop stop-opacity="0"/>
<stop offset="1" stop-color="#D6CEFF" stop-opacity="0.19"/>
</linearGradient>
<linearGradient id="paint78_linear_192_2" x1="-7.20694" y1="539.496" x2="171.882" y2="716.865" gradientUnits="userSpaceOnUse">
<stop stop-opacity="0"/>
<stop offset="1" stop-color="white"/>
</linearGradient>
<linearGradient id="paint79_linear_192_2" x1="-6.86749e-08" y1="79.0185" x2="233.838" y2="758.947" gradientUnits="userSpaceOnUse">
<stop stop-opacity="0"/>
<stop offset="1" stop-color="#D6CEFF" stop-opacity="0.19"/>
</linearGradient>
<linearGradient id="paint80_linear_192_2" x1="-7.20694" y1="539.496" x2="171.882" y2="716.865" gradientUnits="userSpaceOnUse">
<stop stop-opacity="0"/>
<stop offset="1" stop-color="white"/>
</linearGradient>
<linearGradient id="paint81_linear_192_2" x1="-6.86749e-08" y1="79.0185" x2="233.838" y2="758.947" gradientUnits="userSpaceOnUse">
<stop stop-opacity="0"/>
<stop offset="1" stop-color="#D6CEFF" stop-opacity="0.19"/>
</linearGradient>
<linearGradient id="paint82_linear_192_2" x1="-7.20694" y1="539.496" x2="171.882" y2="716.865" gradientUnits="userSpaceOnUse">
<stop stop-opacity="0"/>
<stop offset="1" stop-color="white"/>
</linearGradient>
<linearGradient id="paint83_linear_192_2" x1="-6.86749e-08" y1="79.0185" x2="233.838" y2="758.947" gradientUnits="userSpaceOnUse">
<stop stop-opacity="0"/>
<stop offset="1" stop-color="#D6CEFF" stop-opacity="0.19"/>
</linearGradient>
<linearGradient id="paint84_linear_192_2" x1="-7.14372" y1="539.496" x2="171.923" y2="715.287" gradientUnits="userSpaceOnUse">
<stop stop-opacity="0"/>
<stop offset="1" stop-color="white"/>
</linearGradient>
<linearGradient id="paint85_linear_192_2" x1="-6.80725e-08" y1="79.0185" x2="235.465" y2="757.671" gradientUnits="userSpaceOnUse">
<stop stop-opacity="0"/>
<stop offset="1" stop-color="#D6CEFF" stop-opacity="0.19"/>
</linearGradient>
<linearGradient id="paint86_linear_192_2" x1="-7.14372" y1="539.496" x2="171.923" y2="715.287" gradientUnits="userSpaceOnUse">
<stop stop-opacity="0"/>
<stop offset="1" stop-color="white"/>
</linearGradient>
<linearGradient id="paint87_linear_192_2" x1="-6.80725e-08" y1="79.0185" x2="235.465" y2="757.671" gradientUnits="userSpaceOnUse">
<stop stop-opacity="0"/>
<stop offset="1" stop-color="#D6CEFF" stop-opacity="0.19"/>
</linearGradient>
<linearGradient id="paint88_linear_192_2" x1="-7.14372" y1="539.496" x2="171.923" y2="715.287" gradientUnits="userSpaceOnUse">
<stop stop-opacity="0"/>
<stop offset="1" stop-color="white"/>
</linearGradient>
<linearGradient id="paint89_linear_192_2" x1="-6.80725e-08" y1="79.0185" x2="235.465" y2="757.671" gradientUnits="userSpaceOnUse">
<stop stop-opacity="0"/>
<stop offset="1" stop-color="#D6CEFF" stop-opacity="0.19"/>
</linearGradient>
<linearGradient id="paint90_linear_192_2" x1="-7.14372" y1="539.496" x2="171.923" y2="715.287" gradientUnits="userSpaceOnUse">
<stop stop-opacity="0"/>
<stop offset="1" stop-color="white"/>
</linearGradient>
<linearGradient id="paint91_linear_192_2" x1="-6.80725e-08" y1="79.0185" x2="235.465" y2="757.671" gradientUnits="userSpaceOnUse">
<stop stop-opacity="0"/>
<stop offset="1" stop-color="#D6CEFF" stop-opacity="0.19"/>
</linearGradient>
<linearGradient id="paint92_linear_192_2" x1="-7.14372" y1="539.496" x2="171.923" y2="715.287" gradientUnits="userSpaceOnUse">
<stop stop-opacity="0"/>
<stop offset="1" stop-color="white"/>
</linearGradient>
<linearGradient id="paint93_linear_192_2" x1="-6.80725e-08" y1="79.0185" x2="235.465" y2="757.671" gradientUnits="userSpaceOnUse">
<stop stop-opacity="0"/>
<stop offset="1" stop-color="#D6CEFF" stop-opacity="0.19"/>
</linearGradient>
<linearGradient id="paint94_linear_192_2" x1="-7.14372" y1="539.496" x2="171.923" y2="715.287" gradientUnits="userSpaceOnUse">
<stop stop-opacity="0"/>
<stop offset="1" stop-color="white"/>
</linearGradient>
<linearGradient id="paint95_linear_192_2" x1="-6.80725e-08" y1="79.0185" x2="235.465" y2="757.671" gradientUnits="userSpaceOnUse">
<stop stop-opacity="0"/>
<stop offset="1" stop-color="#D6CEFF" stop-opacity="0.19"/>
</linearGradient>
</defs>
</svg>
