<svg width="879" height="221" viewBox="0 0 879 221" fill="none" xmlns="http://www.w3.org/2000/svg">
<g clip-path="url(#clip0_271_6)">
<path d="M19.4727 18.1575C19.4727 8.17038 27.5688 0.0742188 37.5559 0.0742188H106.181H187.491C197.478 0.0742188 205.574 8.17038 205.574 18.1575V209.065C205.574 215.715 200.183 221.107 193.533 221.107V221.107C153.603 221.107 121.04 189.106 120.344 149.182L119.694 111.927C119.671 110.578 120.991 109.613 122.269 110.044L178.349 128.951C179.983 129.502 181.733 128.513 182.105 126.829V126.829C183.322 121.31 180.725 115.654 175.746 112.979L129.021 87.8828C123.235 84.775 119.589 78.7744 119.496 72.2072L119.044 40.1551C119.012 37.9129 118.554 35.6972 117.695 33.6259L115.772 28.9897C113.837 24.3232 107.246 24.2693 105.234 28.9036L103.247 33.48C102.307 35.6455 101.81 37.9773 101.785 40.3379L101.423 74.5238C101.369 79.6926 98.6227 84.4589 94.1786 87.0989L52.121 112.083C47.0491 115.096 45.1309 121.492 47.7075 126.799V126.799C48.2949 128.009 49.707 128.572 50.9657 128.099L98.6598 110.165C99.946 109.682 101.316 110.643 101.298 112.017L100.773 152.199C100.273 190.4 69.1628 221.107 30.9579 221.107V221.107C24.6148 221.107 19.4727 215.964 19.4727 209.621V18.1575Z" fill="url(#paint0_linear_271_6)"/>
<path d="M19.4727 18.1575C19.4727 8.17038 27.5688 0.0742188 37.5559 0.0742188H106.181H187.491C197.478 0.0742188 205.574 8.17038 205.574 18.1575V209.065C205.574 215.715 200.183 221.107 193.533 221.107V221.107C153.603 221.107 121.04 189.106 120.344 149.182L119.694 111.927C119.671 110.578 120.991 109.613 122.269 110.044L178.324 128.943C179.97 129.498 181.734 128.5 182.106 126.803V126.803C183.322 121.247 180.702 115.558 175.689 112.873L129.038 87.8789C123.242 84.7741 119.589 78.7684 119.496 72.1944L119.044 40.1551C119.012 37.9129 118.554 35.6972 117.695 33.6259L115.772 28.9897C113.837 24.3232 107.246 24.2693 105.234 28.9036L103.247 33.48C102.307 35.6455 101.81 37.9773 101.785 40.3379L101.423 74.5238C101.369 79.6926 98.6227 84.4589 94.1786 87.0989L52.121 112.083C47.0491 115.096 45.1309 121.492 47.7075 126.799V126.799C48.2949 128.009 49.707 128.572 50.9657 128.099L98.6598 110.165C99.946 109.682 101.316 110.643 101.298 112.017L100.773 152.199C100.273 190.4 69.1628 221.107 30.9579 221.107V221.107C24.6148 221.107 19.4727 215.964 19.4727 209.621V18.1575Z" fill="white"/>
<path d="M297.96 177.044V55.3637H250.374V29.9007H371.428V55.3637H323.215V177.044H297.96ZM379.817 64.3384H435.752V88.7579H403.819V176H379.817V64.3384ZM457.757 58.2857C450.034 58.2857 443.773 51.8156 443.773 44.0932C443.773 36.3708 450.034 29.9007 457.757 29.9007C465.479 29.9007 471.949 36.3708 471.949 44.0932C471.949 51.8156 465.479 58.2857 457.757 58.2857ZM469.653 176.209H445.651V64.3384H469.653V176.209ZM535.483 64.5471C564.494 64.5471 588.078 89.5927 588.078 120.274C588.078 151.163 564.494 176 535.483 176C526.091 176 517.325 173.495 509.602 168.904V211.899H485.6V67.8865H509.602V71.8521C517.325 67.2604 526.091 64.5471 535.483 64.5471ZM563.659 120.274C563.659 103.576 552.388 90.0101 538.405 88.9666H538.196C537.779 88.9666 537.152 88.7579 536.735 88.7579C536.526 88.7579 536.318 88.9666 536.109 88.9666C535.9 88.9666 535.691 88.7579 535.483 88.9666C534.857 88.9666 534.439 88.9666 534.022 88.9666C533.813 88.9666 533.813 88.9666 533.813 88.9666C528.595 89.5927 524.421 91.6798 520.873 94.8105C513.985 100.446 509.602 109.838 509.602 120.274C509.602 120.482 509.602 120.482 509.602 120.482C509.602 120.482 509.602 120.482 509.602 120.691C509.602 121.317 509.602 122.152 509.602 123.196C509.811 123.613 509.811 124.03 509.811 124.448C509.811 124.657 509.811 124.865 510.02 125.283C510.228 127.996 511.063 130.918 512.107 133.422C514.82 140.727 520.038 147.824 529.221 150.537C531.1 151.372 533.187 151.581 535.274 151.789C535.274 151.789 535.274 151.789 535.483 151.789C535.483 151.789 535.483 151.789 535.691 151.789C535.9 151.789 536.318 151.789 536.735 151.789C536.944 151.789 537.152 151.789 537.361 151.789C537.987 151.789 538.613 151.789 539.24 151.789C539.448 151.581 539.448 151.581 539.448 151.581C542.996 151.372 546.544 149.911 549.466 148.032H549.675C550.301 147.615 550.927 147.198 551.554 146.571C551.971 146.154 552.597 145.737 553.015 145.528C553.223 145.319 553.223 145.11 553.432 144.902C559.693 139.266 563.659 130.292 563.659 120.274ZM672.505 64.3384H699.637L651.425 211.899H624.501L646.833 143.441H619.7L585.054 64.3384H611.978L646.833 143.441L672.505 64.3384ZM740.301 136.553L726.108 176H699.184L754.493 29.9007H780.165L835.265 176H808.341L794.357 136.553H740.301ZM767.433 60.999L749.275 111.299H785.174L767.433 60.999ZM869.187 176H843.933V29.9007H869.187V176Z" fill="white"/>
</g>
<defs>
<linearGradient id="paint0_linear_271_6" x1="201.151" y1="-3.95875" x2="25.8473" y2="227.351" gradientUnits="userSpaceOnUse">
<stop stop-color="white"/>
<stop offset="1" stop-color="#101010" stop-opacity="0.29"/>
</linearGradient>
<clipPath id="clip0_271_6">
<rect width="879" height="221" fill="white"/>
</clipPath>
</defs>
</svg>
