<svg width="187" height="222" viewBox="0 0 187 222" fill="none" xmlns="http://www.w3.org/2000/svg">
<path d="M0.472656 18.1575C0.472656 8.17038 8.56882 0.0742188 18.5559 0.0742188H87.1813H168.491C178.478 0.0742188 186.574 8.17038 186.574 18.1575V209.065C186.574 215.715 181.183 221.107 174.533 221.107C134.603 221.107 102.04 189.106 101.344 149.182L100.694 111.927C100.671 110.578 101.991 109.613 103.269 110.044L159.324 128.943C160.97 129.498 162.734 128.5 163.106 126.803C164.322 121.247 161.702 115.558 156.689 112.873L110.038 87.8789C104.242 84.7741 100.589 78.7684 100.496 72.1944L100.044 40.1551C100.012 37.9129 99.5544 35.6972 98.6953 33.6259L96.7722 28.9897C94.8366 24.3232 88.2456 24.2693 86.234 28.9036L84.2474 33.48C83.3074 35.6455 82.8103 37.9773 82.7853 40.3379L82.4234 74.5238C82.3687 79.6926 79.6227 84.4589 75.1786 87.0989L33.121 112.083C28.0491 115.096 26.1309 121.492 28.7075 126.799C29.2949 128.009 30.707 128.572 31.9657 128.099L79.6598 110.165C80.946 109.682 82.3159 110.643 82.2979 112.017L81.7726 152.199C81.2731 190.4 50.1628 221.107 11.9579 221.107C5.61479 221.107 0.472656 215.964 0.472656 209.621V18.1575Z" fill="white"/>
</svg>
